<svg width="32" height="32" viewBox="0 0 32 32" fill="none" xmlns="http://www.w3.org/2000/svg">
<path d="M0 16C0 7.16344 7.16344 0 16 0C24.8366 0 32 7.16344 32 16C32 24.8366 24.8366 32 16 32C7.16344 32 0 24.8366 0 16Z" fill="#F7931A"/>
<path fill-rule="evenodd" clip-rule="evenodd" d="M23.6265 14.0075C23.9455 11.871 22.3218 10.7225 20.1015 9.95632L20.8218 7.06217L19.0631 6.62318L18.362 9.44114C17.8996 9.32562 17.4248 9.21678 16.953 9.10887L17.6592 6.27232L15.9017 5.83333L15.181 8.72654C14.7984 8.63928 14.4227 8.55303 14.0581 8.46216L14.0601 8.45306L11.635 7.84637L11.1672 9.72804C11.1672 9.72804 12.4719 10.0277 12.4444 10.0461C13.1566 10.2242 13.2853 10.6964 13.2639 11.0707L12.4435 14.3679C12.4925 14.3804 12.5561 14.3984 12.6263 14.4267C12.5676 14.4121 12.5052 14.3961 12.4404 14.3806L11.2904 18.9994C11.2034 19.2161 10.9825 19.5414 10.4846 19.4179C10.5022 19.4435 9.20637 19.0983 9.20637 19.0983L8.33325 21.115L10.6218 21.6865C11.0475 21.7935 11.4648 21.9054 11.8756 22.0106L11.1479 24.938L12.9045 25.377L13.6251 22.4807C14.105 22.6112 14.5707 22.7316 15.0266 22.8451L14.3084 25.7277L16.0671 26.1667L16.7947 23.2448C19.7935 23.8134 22.0484 23.5841 22.9975 20.8669C23.7623 18.6791 22.9594 17.4173 21.3818 16.5944C22.5309 16.3289 23.3964 15.5718 23.6272 14.0078L23.6266 14.0074L23.6265 14.0075ZM19.6085 19.6519C19.065 21.8396 15.3881 20.657 14.1961 20.3605L15.1618 16.4822C16.3538 16.7803 20.1765 17.3703 19.6086 19.6519H19.6085ZM20.1524 13.9758C19.6566 15.9658 16.5963 14.9548 15.6036 14.7069L16.4791 11.1896C17.4719 11.4375 20.6688 11.9001 20.1525 13.9758H20.1524Z" fill="white"/>
</svg>
