<svg width="32" height="32" viewBox="0 0 32 32" fill="none" xmlns="http://www.w3.org/2000/svg">
<path d="M16 32C24.8366 32 32 24.8366 32 16C32 7.16344 24.8366 0 16 0C7.16344 0 0 7.16344 0 16C0 24.8366 7.16344 32 16 32Z" fill="#627EEA"/>
<path d="M16.0005 4.00006V12.8701L23.4975 16.2201L16.0005 4.00006Z" fill="white" fill-opacity="0.602"/>
<path d="M16.4982 4.00003L9.00024 16.22L16.4982 12.87V4.00003Z" fill="white"/>
<path d="M16.0005 22.3521V28.3791L23.5025 18.0001L16.0005 22.3521Z" fill="white" fill-opacity="0.602"/>
<path d="M16.4982 28.3791V22.3511L9.00024 18.0001L16.4982 28.3791Z" fill="white"/>
<path d="M16.0005 20.701L23.4975 16.348L16.0005 13V20.701Z" fill="white" fill-opacity="0.2"/>
<path d="M9.00024 16.348L16.4982 20.701V13L9.00024 16.348Z" fill="white" fill-opacity="0.602"/>
</svg>
