<?xml version="1.0" encoding="iso-8859-1"?>
<!-- Uploaded to: SVG Repo, www.svgrepo.com, Generator: SVG Repo Mixer Tools -->
<svg fill="#FFFFFF" height="800px" width="800px" version="1.1" id="Layer_1" xmlns="http://www.w3.org/2000/svg" xmlns:xlink="http://www.w3.org/1999/xlink" 
	 viewBox="0 0 512 512" xml:space="preserve">
<g>
	<g>
		<path d="M256.001,0c-46.43,0-91.582,16.381-127.135,46.128c-3.734,3.124-4.228,8.682-1.105,12.415
			c3.125,3.735,8.684,4.228,12.416,1.104c19.134-16.009,41.323-27.764,65-34.709c-29.107,30.962-49.23,88.01-52.274,155.423
			c-11.611-7.083-24.973-10.873-38.963-10.873c-13.444,0-26.306,3.515-37.596,10.079c3.341-32.853,15.501-63.798,35.682-90.396
			c2.942-3.878,2.184-9.406-1.695-12.349c-3.878-2.942-9.408-2.182-12.349,1.695c-26.311,34.678-40.217,76.076-40.217,119.719
			c0,1.415,0.341,2.81,0.993,4.065l0.776,1.493c0.369,0.71,0.833,1.368,1.38,1.952l154.458,165.317
			c1.736,1.858,4.086,2.797,6.441,2.797c2.155,0,4.317-0.786,6.016-2.374c3.557-3.323,3.747-8.901,0.423-12.458L78.836,199.105
			c9.999-7.771,22.203-11.987,35.105-11.987c15.59,0,30.171,6.136,41.057,17.277c1.659,1.697,3.932,2.655,6.305,2.655
			c2.374,0,4.647-0.957,6.305-2.655c10.885-11.141,25.462-17.277,41.044-17.277c14.413,0,27.964,5.26,38.54,14.868v163.057
			c0,4.868,3.946,8.814,8.814,8.814c4.868,0,8.814-3.946,8.814-8.814V201.994c10.57-9.613,24.121-14.877,38.542-14.877
			c15.592,0,30.171,6.136,41.057,17.277c1.658,1.697,3.931,2.655,6.304,2.655c2.373,0,4.646-0.957,6.304-2.655
			c10.887-11.142,25.46-17.282,41.034-17.285c0.005,0,0.009,0,0.014,0c12.746,0,24.819,4.119,34.756,11.718L283.757,359.041
			c-3.315,3.563-3.114,9.141,0.449,12.457c1.698,1.579,3.852,2.361,6.002,2.361c2.363,0,4.72-0.944,6.455-2.81l155.211-166.81
			c1.517-1.631,2.361-3.788,2.361-6.017C454.224,88.923,365.296,0,256.001,0z M247.192,180.117
			c-11.518-6.921-24.725-10.628-38.541-10.628c-13.638,0-26.681,3.611-38.086,10.359c2.051-41.891,11.094-80.717,25.979-110.844
			c14.134-28.608,31.872-46.158,50.648-50.383V180.117z M398.073,169.484c-0.006-0.001-0.012-0.001-0.016-0.001
			c-13.976,0.004-27.331,3.796-38.937,10.88c-0.871-19.131-3.135-37.773-6.786-55.61c-0.975-4.769-5.627-7.85-10.403-6.868
			c-4.769,0.977-7.843,5.633-6.868,10.402c3.383,16.532,5.52,33.811,6.391,51.561c-11.408-6.747-24.45-10.358-38.093-10.358
			c-13.82,0-27.029,3.707-38.542,10.63V18.637c24.254,5.453,46.74,33.176,61.381,76.51c1.56,4.612,6.559,7.085,11.173,5.529
			c4.612-1.558,7.087-6.561,5.528-11.172c-9.232-27.323-21.686-49.271-36.134-64.598c69.167,20.297,121.242,80.962,128.865,154.636
			C424.347,172.992,411.5,169.484,398.073,169.484z"/>
	</g>
</g>
<g>
	<g>
		<path d="M314.419,392.831H197.601c-4.868,0-8.814,3.946-8.814,8.814v42.879c0,4.868,3.946,8.814,8.814,8.814
			s8.814-3.946,8.814-8.814v-23.54l36.16,31.431l-36.16,31.43v-9.941c0-4.868-3.946-8.814-8.814-8.814s-8.814,3.946-8.814,8.814
			v29.282c0,4.868,3.946,8.814,8.814,8.814h116.819c4.869,0,8.814-3.946,8.814-8.814V401.645
			C323.233,396.777,319.287,392.831,314.419,392.831z M221.177,410.459h69.667l-34.833,30.278L221.177,410.459z M221.177,494.372
			l34.833-30.278l34.833,30.278H221.177z M305.605,483.847l-36.16-31.431l36.16-31.431V483.847z"/>
	</g>
</g>
</svg>
