<?xml version="1.0" encoding="iso-8859-1"?>
<!-- Uploaded to: SVG Repo, www.svgrepo.com, Generator: SVG Repo Mixer Tools -->
<svg fill="#FF0000" height="800px" width="800px" version="1.1" id="Layer_1" xmlns="http://www.w3.org/2000/svg" xmlns:xlink="http://www.w3.org/1999/xlink" 
	 viewBox="0 0 297 297" xml:space="preserve">
<g>
	<g>
		<g>
			<path d="M147.655,71.797c-17.947,0-32.548,14.601-32.548,32.548c0,17.947,14.601,32.548,32.548,32.548
				c17.947,0,32.548-14.601,32.548-32.548C180.203,86.398,165.603,71.797,147.655,71.797z M147.655,121.576
				c-9.501,0-17.231-7.73-17.231-17.231c0-9.501,7.73-17.231,17.231-17.231c9.501,0,17.231,7.73,17.231,17.231
				C164.886,113.846,157.156,121.576,147.655,121.576z"/>
			<path d="M245.437,183.301c-9.288-14.255-20.467-20.807-26.304-23.446c3.134-20.065,4.186-40.095,1.127-57.195
				C209.149,40.542,155.333,3.222,153.048,1.663c-3.253-2.217-7.533-2.217-10.786,0c-2.285,1.558-56.101,38.879-67.211,100.996
				c-3.096,17.312-1.979,37.627,1.246,57.941c-6.122,3.043-16.221,9.637-24.734,22.7c-16,24.555-18.687,59.459-7.985,103.742
				c0.74,3.065,2.943,5.569,5.888,6.695c1.107,0.423,2.264,0.63,3.416,0.63c1.916,0,3.815-0.575,5.436-1.692l46.663-32.181
				c1.24,3.104,2.056,5.039,2.273,5.549c1.502,3.534,4.971,5.828,8.81,5.828h22.018v15.556c0,5.287,4.286,9.573,9.573,9.573
				s9.573-4.286,9.573-9.573v-15.556h22.018c3.839,0,7.308-2.294,8.81-5.828c0.237-0.558,1.193-2.828,2.637-6.464l47.989,33.096
				c1.621,1.117,3.521,1.692,5.436,1.692c1.152,0,2.31-0.208,3.416-0.63c2.945-1.126,5.147-3.629,5.888-6.695
				C264.123,242.76,261.437,207.856,245.437,183.301z M147.655,21.617c6.194,5.032,16.822,14.516,27.123,27.684h-54.246
				C130.835,36.13,141.464,26.647,147.655,21.617z M59.265,268.765c-10.448-57.725,9.367-80.269,20.823-88.232
				c5.157,23.501,12.272,45.624,17.937,61.501L59.265,268.765z M172.791,252.725h-15.563V176.86c0-5.287-4.286-9.573-9.573-9.573
				c-5.287,0-9.573,4.286-9.573,9.573v75.865h-15.567c-8.574-21.734-37.118-99.175-28.618-146.695
				c2.785-15.569,8.839-29.477,16.051-41.413h75.413c7.212,11.936,13.267,25.844,16.051,41.413
				C209.901,153.495,181.364,230.978,172.791,252.725z M237.736,268.765l-40.116-27.666c5.688-16.028,12.744-38.143,17.816-61.546
				C226.546,186.558,248.648,208.471,237.736,268.765z"/>
		</g>
	</g>
</g>
</svg>
